<?xml version="1.0" encoding="utf-8"?>
<!-- Generator: Adobe Illustrator 20.1.0, SVG Export Plug-In . SVG Version: 6.00 Build 0)  -->
<svg version="1.1" id="Layer_1" xmlns="http://www.w3.org/2000/svg" xmlns:xlink="http://www.w3.org/1999/xlink" x="0px" y="0px"
	 viewBox="0 0 270.1 125.3" style="enable-background:new 0 0 270.1 125.3;" xml:space="preserve">
<style type="text/css">
	.st0{fill:#C49E57;}
</style>
<g>
	<g>
		<g>
			<g>
				<path class="st0" d="M22.9,74.3c2.2,0.8,3.3,2.3,3.3,4.6c0,1.8-0.6,3.1-1.9,4.1c-0.6,0.5-1.4,0.9-2.2,1.1
					c-0.8,0.2-1.9,0.3-3.1,0.3H5.7V84c0.3-0.1,0.6-0.2,0.7-0.4c0.1-0.2,0.2-0.4,0.2-0.7V66.6c0-0.3-0.1-0.5-0.2-0.7
					c-0.1-0.2-0.4-0.3-0.7-0.4v-0.5h13.1c1.3,0,2.3,0.1,3,0.3c0.8,0.2,1.4,0.5,2,1c1.1,0.9,1.7,2.2,1.7,3.9
					C25.5,72.1,24.6,73.5,22.9,74.3z M10.8,72.8h7.4c1.1,0,1.9-0.2,2.3-0.5c0.5-0.4,0.7-1,0.7-1.8c0-0.8-0.2-1.4-0.7-1.7
					c-0.5-0.3-1.3-0.5-2.4-0.5h-7.4V72.8z M10.8,81.2h7.2c1.3,0,2.3-0.2,2.9-0.6c0.7-0.4,1-1.1,1-2.1c0-1-0.3-1.6-1-2.1
					c-0.6-0.4-1.5-0.6-2.9-0.6h-7.2V81.2z"/>
				<path class="st0" d="M38.9,75.9v5.3h12.4c0.3,0,0.5-0.1,0.7-0.2c0.2-0.1,0.3-0.4,0.4-0.7h0.5v5h-0.5c-0.1-0.3-0.2-0.6-0.4-0.7
					c-0.2-0.1-0.4-0.2-0.7-0.2H33.8V84c0.3-0.1,0.6-0.2,0.7-0.4c0.1-0.2,0.2-0.4,0.2-0.7V66.6c0-0.3-0.1-0.5-0.2-0.7
					c-0.1-0.2-0.4-0.3-0.7-0.4v-0.5H51c0.3,0,0.5-0.1,0.7-0.2c0.2-0.1,0.3-0.4,0.4-0.7h0.5v5H52c-0.1-0.3-0.2-0.6-0.4-0.7
					c-0.2-0.1-0.4-0.2-0.7-0.2H38.9v4.6h7.8c0.3,0,0.5-0.1,0.7-0.2c0.2-0.1,0.3-0.4,0.4-0.7h0.5v4.9h-0.5c-0.1-0.3-0.2-0.6-0.4-0.7
					c-0.2-0.1-0.4-0.2-0.7-0.2H38.9z"/>
				<path class="st0" d="M65.3,75.9v5.3h12.4c0.3,0,0.5-0.1,0.7-0.2c0.2-0.1,0.3-0.4,0.4-0.7h0.5v5h-0.5c-0.1-0.3-0.2-0.6-0.4-0.7
					c-0.2-0.1-0.4-0.2-0.7-0.2H60.2V84c0.3-0.1,0.6-0.2,0.7-0.4c0.1-0.2,0.2-0.4,0.2-0.7V66.6c0-0.3-0.1-0.5-0.2-0.7
					c-0.1-0.2-0.4-0.3-0.7-0.4v-0.5h17.2c0.3,0,0.5-0.1,0.7-0.2c0.2-0.1,0.3-0.4,0.4-0.7h0.5v5h-0.5c-0.1-0.3-0.2-0.6-0.4-0.7
					c-0.2-0.1-0.4-0.2-0.7-0.2H65.3v4.6h7.8c0.3,0,0.5-0.1,0.7-0.2c0.2-0.1,0.3-0.4,0.4-0.7h0.5v4.9h-0.5c-0.1-0.3-0.2-0.6-0.4-0.7
					c-0.2-0.1-0.4-0.2-0.7-0.2H65.3z"/>
				<path class="st0" d="M91.9,76v7c0,0.3,0.1,0.5,0.2,0.7c0.1,0.2,0.4,0.3,0.7,0.4v0.5h-6V84c0.3-0.1,0.6-0.2,0.7-0.4
					c0.1-0.2,0.2-0.4,0.2-0.7V66.6c0-0.3-0.1-0.5-0.2-0.7c-0.1-0.2-0.4-0.3-0.7-0.4v-0.5h17.1c0.3,0,0.5-0.1,0.7-0.2
					c0.2-0.1,0.3-0.4,0.4-0.7h0.5v5h-0.5c-0.1-0.3-0.2-0.6-0.4-0.7c-0.2-0.1-0.4-0.2-0.7-0.2h-12v4.6h7.8c0.3,0,0.5-0.1,0.7-0.2
					c0.2-0.1,0.3-0.4,0.4-0.7h0.5v4.9h-0.5c-0.1-0.3-0.2-0.6-0.4-0.7s-0.4-0.2-0.7-0.2H91.9z"/>
				<path class="st0" d="M116.4,81.2h11.9c0.3,0,0.5-0.1,0.7-0.2c0.2-0.1,0.3-0.4,0.4-0.7h0.5v5h-0.5c-0.1-0.3-0.2-0.6-0.4-0.7
					c-0.2-0.1-0.4-0.2-0.7-0.2h-17V84c0.3-0.1,0.6-0.2,0.7-0.4c0.1-0.2,0.2-0.4,0.2-0.7V66.6c0-0.3-0.1-0.5-0.2-0.7
					c-0.1-0.2-0.4-0.3-0.7-0.4v-0.5h6v0.5c-0.3,0.1-0.6,0.2-0.7,0.4c-0.1,0.2-0.2,0.4-0.2,0.7V81.2z"/>
				<path class="st0" d="M140.6,75.9v5.3H153c0.3,0,0.5-0.1,0.7-0.2c0.2-0.1,0.3-0.4,0.4-0.7h0.5v5H154c-0.1-0.3-0.2-0.6-0.4-0.7
					c-0.2-0.1-0.4-0.2-0.7-0.2h-17.5V84c0.3-0.1,0.6-0.2,0.7-0.4c0.1-0.2,0.2-0.4,0.2-0.7V66.6c0-0.3-0.1-0.5-0.2-0.7
					c-0.1-0.2-0.4-0.3-0.7-0.4v-0.5h17.2c0.3,0,0.5-0.1,0.7-0.2c0.2-0.1,0.3-0.4,0.4-0.7h0.5v5h-0.5c-0.1-0.3-0.2-0.6-0.4-0.7
					c-0.2-0.1-0.4-0.2-0.7-0.2h-12.1v4.6h7.8c0.3,0,0.5-0.1,0.7-0.2c0.2-0.1,0.3-0.4,0.4-0.7h0.5v4.9h-0.5c-0.1-0.3-0.2-0.6-0.4-0.7
					c-0.2-0.1-0.4-0.2-0.7-0.2H140.6z"/>
				<path class="st0" d="M162.2,82.9V66.6c0-0.3-0.1-0.5-0.2-0.7c-0.1-0.2-0.4-0.3-0.7-0.4v-0.5H172c2.4,0,4.2,0.3,5.4,0.8
					c1.8,0.8,3.2,2.1,4,3.9c0.7,1.4,1,3.1,1,5c0,3.3-1,5.9-3.1,7.6c-0.9,0.7-1.9,1.3-3,1.6c-1.2,0.3-2.6,0.5-4.4,0.5h-10.8V84
					c0.3-0.1,0.6-0.2,0.7-0.4C162.1,83.4,162.2,83.2,162.2,82.9z M166.4,81.2h5.3c1.7,0,3-0.2,3.8-0.7c1.8-1,2.7-2.9,2.7-5.8
					c0-2.1-0.5-3.7-1.5-4.8c-0.5-0.6-1.2-1-2-1.3c-0.8-0.3-1.8-0.4-3.1-0.4h-5.3V81.2z"/>
				<path class="st0" d="M205.8,77.5h-4.8c-0.3,0-0.5,0.1-0.7,0.2c-0.1,0.1-0.3,0.4-0.4,0.7h-0.5v-4.5h0.5c0.1,0.3,0.2,0.6,0.4,0.7
					c0.1,0.1,0.4,0.2,0.7,0.2h9.1v0.5c-0.3,0.1-0.6,0.2-0.7,0.4c-0.1,0.2-0.2,0.4-0.2,0.7v4c0,0.3,0.1,0.5,0.2,0.7s0.4,0.3,0.7,0.4
					v0.4c-3.7,2.1-7.2,3.1-10.7,3.1c-3.1,0-5.7-0.7-7.6-2.2c-2.5-1.9-3.7-4.5-3.7-7.8c0-3.1,1.1-5.6,3.3-7.4
					c2.1-1.7,4.9-2.6,8.3-2.6c1.1,0,2.1,0.1,3.1,0.3c1,0.2,2.1,0.5,3.3,1c0.6,0.3,1.1,0.4,1.4,0.4c0.2,0,0.4-0.1,0.7-0.3l0.4,0.2
					l-2.3,4.6l-0.4-0.2c0-0.3-0.1-0.5-0.1-0.7c-0.1-0.1-0.2-0.3-0.5-0.5c-0.6-0.4-1.4-0.8-2.5-1.1c-1.1-0.3-2.2-0.5-3.2-0.5
					c-2,0-3.7,0.6-5,1.7c-1.5,1.3-2.2,3-2.2,5.1c0,2,0.7,3.7,2.2,4.9c1.3,1.1,3.1,1.7,5.3,1.7c1.1,0,2.1-0.1,3.2-0.4
					c1-0.2,1.9-0.6,2.7-1V77.5z"/>
				<path class="st0" d="M221.6,75.9v5.3h12.4c0.3,0,0.5-0.1,0.7-0.2c0.2-0.1,0.3-0.4,0.4-0.7h0.5v5h-0.5c-0.1-0.3-0.2-0.6-0.4-0.7
					c-0.2-0.1-0.4-0.2-0.7-0.2h-17.5V84c0.3-0.1,0.6-0.2,0.7-0.4c0.1-0.2,0.2-0.4,0.2-0.7V66.6c0-0.3-0.1-0.5-0.2-0.7
					c-0.1-0.2-0.4-0.3-0.7-0.4v-0.5h17.2c0.3,0,0.5-0.1,0.7-0.2c0.2-0.1,0.3-0.4,0.4-0.7h0.5v5h-0.5c-0.1-0.3-0.2-0.6-0.4-0.7
					c-0.2-0.1-0.4-0.2-0.7-0.2h-12.1v4.6h7.8c0.3,0,0.5-0.1,0.6-0.2c0.2-0.1,0.3-0.4,0.4-0.7h0.5v4.9h-0.5c-0.1-0.3-0.2-0.6-0.4-0.7
					c-0.2-0.1-0.4-0.2-0.6-0.2H221.6z"/>
				<path class="st0" d="M247.4,76.5v6.4c0,0.3,0.1,0.5,0.2,0.7c0.1,0.2,0.4,0.3,0.7,0.4v0.5h-6V84c0.3-0.1,0.6-0.2,0.7-0.4
					c0.1-0.2,0.2-0.4,0.2-0.7V66.6c0-0.3-0.1-0.5-0.2-0.7c-0.1-0.2-0.4-0.3-0.7-0.4v-0.5h12.1c1.5,0,2.6,0.1,3.5,0.3
					c0.9,0.2,1.6,0.5,2.3,0.9c0.7,0.5,1.3,1.2,1.7,2c0.3,0.8,0.5,1.7,0.5,2.6c0,3.1-1.7,5-5.2,5.5l3.7,5.3c0.7,0.9,1.1,1.5,1.4,1.8
					c0.3,0.3,0.7,0.4,1.1,0.4v0.5h-7V84c0.5-0.1,0.7-0.2,0.7-0.5c0-0.2-0.2-0.6-0.7-1.2l-3.9-5.7H247.4z M247.4,73.4h6.5
					c1,0,1.6,0,2-0.1c0.4-0.1,0.8-0.2,1.1-0.4c0.7-0.4,1.1-1.1,1.1-2.1s-0.4-1.7-1.1-2.1c-0.3-0.2-0.7-0.3-1.1-0.4
					c-0.4-0.1-1.1-0.1-2-0.1h-6.5V73.4z"/>
			</g>
		</g>
		<g>
			<g>
				<path class="st0" d="M132.2,11.3c2.7-0.7,4.2-1.6,4.4-2.7c0.1-0.5,0-0.9-0.2-1.3c1.3,0.9,2,1.8,2,2.6c0,0.6-0.4,1.2-1.2,1.7
					C135.4,12.7,133,11.7,132.2,11.3z M147.1,35.2 M137.5,42 M122.2,41.4 M144.7,32.8 M148.6,24.6c1.1,0.3,2,0.3,2.6,0.1
					c0.7-0.5,1.6-1.1,2.6-1.6c-0.4-0.1-0.9-0.1-1.4-0.2c-0.1,0-0.3,0-0.4,0c-3.2-2.1-6.1,0.5-6.1,0.5c1,0.5,1.8,0.9,2.5,1.1
					L148.6,24.6z M121.1,42.8c-2-3-3.5-9-1.2-14.2c3.3-7.5,10.6-9.2,15.1-8.9c0,0,0.9,0.1,2.1-1.6c0.4-0.4,0.5-1,0.4-1.5
					s-0.5-1-1-1.2l-9.6-5.7l-0.7,0.3l2.7,2.4l-0.6-0.2c-2.9-1.1-4.4-2.3-4.5-3.6c-0.1-1.4,1.4-2.5,2.2-3c-3.8,0.5-5.8,1.5-6.1,2.7
					c-0.4,1.9,3.4,4.3,3.4,4.4c-3.8-1.7-6.2,0.7-6.6,1.2c0,0,2,2,4.7,2.4c0,0-8.7,4-8.4,12.8C113.2,36.1,119.5,41.6,121.1,42.8z
					 M133.9,53h6c0.1-0.7,1.1-4.8,6.5-8.3c-3.1,0.2-5.4,0.9-8,1.9C138.6,48.3,138.4,50.6,133.9,53z M147.1,28.4
					c-2.3-1.4-11.9-6-12.5-6.3c-3.3,0-9.9,0.9-12.4,7.4c-3,8.2,2.3,14.6,3.9,16c3.8-8.4,13-10.8,13-10.8
					c-12,14.8-18.9,18.1-18.9,18.1h7.2c0,0,5.8-9.6,19.1-9.4c-2.2-2.1-1.8-5.1-1.8-5.1s3.6,8,11.8,7.2c0,0,4.1,3.5,1.9,7.5h5.3
					c0,0-1.6-0.9-2.4-3.7c0,0-0.2-0.6-0.1-1.9s-0.1-3.8-3-6.4c0,0,2.8-4.4-0.9-7.5c0,0,6.3,0.8,7.1-2.4c0.9-4.6-7-7.1-7-7.1
					c-1,0.1-2.1,0.3-3.1,0.6c3,0.5,7.7,2.1,7.5,5.3c0,0.7-0.4,1.2-0.9,1.5c-1.7,1-5.5,0-7.5-1.1C151.4,28.8,147.8,28.5,147.1,28.4
					 M104.2,52.7l6.8,0c0-0.8,0.3-4.6,8.6-8.5c0,0-3.3-2.9-4.1-3.8C115.5,40.4,110.7,47.6,104.2,52.7z"/>
			</g>
		</g>
	</g>
</g>
</svg>
